<svg version="1.1" xmlns="http://www.w3.org/2000/svg" width="108" height="117" viewBox="0 0 108 117">
<path d="M99 21.2002L99 0L82.9492 10.7007C79.4961 9.59961 75.8184 9 72 9C68.1816 9 64.5039 9.59961 61.0508 10.7007L45 0L45 21.2002C39.4023 27.5459 36 35.873 36 45C16.1172 45 0 61.1172 0 81C0 100.883 16.1172 117 36 117L67.5 117C81.1396 117 88.5 106.18 88.5 96C88.5 85.8203 81.1396 75 67.5 75C63.3643 75 60 78.3643 60 82.5C60 86.6357 63.3643 90 67.5 90C71.2568 90 73.5 92.2432 73.5 96C73.5 99.7568 71.2568 102 67.5 102L37.5 102C36.6719 102 36 101.328 36 100.5C36 99.6719 36.6719 99 37.5 99L67.5 99C69.6025 99 70.5 98.1035 70.5 96C70.5 93.8965 69.6025 93 67.5 93C61.71 93 57 88.2891 57 82.5C57 76.7109 61.71 72 67.5 72C83.0889 72 91.5 84.3652 91.5 96C91.5 103.384 88.1074 111.057 81.6475 115.682C96.8428 111.463 108 97.5391 108 81L108 45C108 35.873 104.598 27.5459 99 21.2002zM72 31.5C72 33.9854 69.9854 36 67.5 36C65.0146 36 63 33.9854 63 31.5C63 29.0146 65.0146 27 67.5 27C69.9854 27 72 29.0146 72 31.5zM94.5 31.5C94.5 33.9854 92.4854 36 90 36C87.5146 36 85.5 33.9854 85.5 31.5C85.5 29.0146 87.5146 27 90 27C92.4854 27 94.5 29.0146 94.5 31.5z"/>
</svg>
